<svg width="30" height="32" viewBox="0 0 30 32" fill="none" xmlns="http://www.w3.org/2000/svg">
<ellipse cx="15" cy="16" rx="15" ry="16" fill="#6A4029"/>
<path d="M18.0779 10.5431C18.2368 10.3709 18.4255 10.2343 18.6332 10.1412C18.8409 10.048 19.0635 10 19.2883 10C19.513 10 19.7356 10.048 19.9433 10.1412C20.151 10.2343 20.3397 10.3709 20.4986 10.5431C20.6576 10.7153 20.7837 10.9198 20.8697 11.1447C20.9557 11.3697 21 11.6109 21 11.8544C21 12.0979 20.9557 12.339 20.8697 12.564C20.7837 12.789 20.6576 12.9934 20.4986 13.1656L12.3286 22.0166L9 23L9.90779 19.3941L18.0779 10.5431Z" stroke="white" stroke-width="2" stroke-linecap="round" stroke-linejoin="round"/>
</svg>
