 <svg width="55" height="56" viewBox="0 0 55 56" fill="none" xmlns="http://www.w3.org/2000/svg">
                            <rect y="0.0493164" width="55" height="55" rx="27.5" fill="#FFBA33"/>
                            <path fill-rule="evenodd" clip-rule="evenodd" d="M28.0001 26.8001C28.9549 26.8001 29.8706 26.4208 30.5457 25.7457C31.2208 25.0706 31.6001 24.1549 31.6001 23.2001C31.6001 22.2453 31.2208 21.3296 30.5457 20.6545C29.8706 19.9794 28.9549 19.6001 28.0001 19.6001C27.0453 19.6001 26.1296 19.9794 25.4545 20.6545C24.7794 21.3296 24.4001 22.2453 24.4001 23.2001C24.4001 24.1549 24.7794 25.0706 25.4545 25.7457C26.1296 26.4208 27.0453 26.8001 28.0001 26.8001ZM22.8988 37.6001C21.077 37.6001 19.5423 36.0687 20.2395 34.3856C20.6616 33.3664 21.2804 32.4404 22.0604 31.6604C22.8404 30.8804 23.7664 30.2616 24.7856 29.8395C25.8047 29.4174 26.897 29.2001 28.0001 29.2001C29.1032 29.2001 30.1955 29.4174 31.2146 29.8395C32.2338 30.2616 33.1598 30.8804 33.9398 31.6604C34.7198 32.4404 35.3385 33.3664 35.7607 34.3856C36.4579 36.0687 34.9232 37.6001 33.1014 37.6001H22.8988Z" fill="#6A4029"/>
                        </svg>