 <svg width="55" height="56" viewBox="0 0 55 56" fill="none" xmlns="http://www.w3.org/2000/svg">
                            <rect y="0.0493164" width="55" height="55" rx="27.5" fill="#FFBA33"/>
                            <path d="M38.918 19.0334C38.2583 18.3887 37.475 17.8774 36.6129 17.5285C35.7507 17.1796 34.8267 17 33.8934 17C32.9602 17 32.0361 17.1796 31.174 17.5285C30.3119 17.8774 29.5286 18.3887 28.8688 19.0334L27.4997 20.3706L26.1305 19.0334C24.7979 17.7319 22.9905 17.0007 21.1059 17.0007C19.2213 17.0007 17.4139 17.7319 16.0813 19.0334C14.7487 20.3349 14 22.1001 14 23.9407C14 25.7813 14.7487 27.5466 16.0813 28.8481L17.4504 30.1853L27.4997 40L37.5489 30.1853L38.918 28.8481C39.5781 28.2037 40.1017 27.4387 40.4589 26.5967C40.8161 25.7547 41 24.8522 41 23.9407C41 23.0293 40.8161 22.1268 40.4589 21.2848C40.1017 20.4427 39.5781 19.6777 38.918 19.0334V19.0334Z" stroke="#6A4029" stroke-width="3" stroke-linecap="round" stroke-linejoin="round"/>
                        </svg>